<svg width="572" height="167" xmlns="http://www.w3.org/2000/svg"><path d="M298.392.003c-9.688 0-17.572 7.88-17.572 17.569 0 9.686 7.884 17.567 17.572 17.567 9.688 0 17.57-7.882 17.57-17.568 0-9.688-7.882-17.569-17.57-17.569zm-15.097 165.996h29.99V46.685h-29.99v119.314zM403.474 43.616c-14.975 0-32.247 10.804-37.931 24.338V46.685h-28.457V166h29.988v-55.408c0-23.453 9.007-36.545 28.615-36.905l16.747-29.383c-1.736-.433-7.379-.687-8.962-.687zm120.57.079c-12.87 0-24.41 4.838-32.495 13.621l-.416.45-.41-.453c-7.985-8.782-19.482-13.618-32.365-13.618-27.578 0-47.597 20.108-47.597 47.811v74.532h29.516V90.867c0-11.63 7.096-19.143 18.081-19.143 10.99 0 18.09 7.513 18.09 19.143v75.171h29.507V90.867c0-11.63 7.1-19.143 18.09-19.143 10.988 0 18.088 7.513 18.088 19.143v75.171h29.508V91.506c0-27.703-20.019-47.811-47.597-47.811zm-277.058-8.003c0-3.937.528-8.651 3.896-11.238 3.69-2.866 9.09-2.34 13.458-2.12L270.165.61l-3.106-.164c-12.522-.67-25.688-1.6-36.671 5.66-9.306 6.153-13.45 16.74-13.45 27.614v12.964h-35.761V35.692c0-3.923.518-8.578 3.82-11.196 3.691-2.925 9.157-2.382 13.534-2.162L204.355.61l-3.106-.164c-12.616-.675-25.918-1.596-36.912 5.855-9.122 6.182-13.158 16.676-13.158 27.419v12.964h-13.527V68.37h13.527v97.628h29.998V68.37h35.761v97.628h30.001V68.37h20.769V46.685h-20.722V35.692zm-124.559 130.32l-.018-105.358c-.087-8.816-6.751-16.049-15.323-17.036-5.733-.367-11.819 1.731-15.407 6.376L0 166h22.596c9.018-.01 16.182-4.692 21.606-11.698l50.779-64.23v75.94h27.446z" fill="#FEFEFE" fill-rule="evenodd"/></svg>
